<mxfile host="Electron" modified="2024-07-06T16:27:52.809Z" agent="Mozilla/5.0 (Windows NT 10.0; Win64; x64) AppleWebKit/537.36 (KHTML, like Gecko) draw.io/24.4.13 Chrome/124.0.6367.207 Electron/30.0.6 Safari/537.36" etag="apSqJZLVpkzqhkzNcCm3" version="24.4.13" type="device">
  <diagram name="Page-1" id="Xse8WK59IOAnQLQ-py6_">
    <mxGraphModel dx="2045" dy="697" grid="1" gridSize="20" guides="0" tooltips="1" connect="0" arrows="0" fold="1" page="1" pageScale="1" pageWidth="850" pageHeight="1100" math="0" shadow="0">
      <root>
        <mxCell id="0" />
        <mxCell id="1" parent="0" />
        <mxCell id="hQ4Kj63C60F2XzSE5vp--160" value="" style="whiteSpace=wrap;html=1;aspect=fixed;" vertex="1" parent="1">
          <mxGeometry x="-340" y="760" width="320" height="320" as="geometry" />
        </mxCell>
        <mxCell id="hQ4Kj63C60F2XzSE5vp--51" value="" style="rounded=0;whiteSpace=wrap;html=1;fillColor=#7EA6E0;" vertex="1" parent="1">
          <mxGeometry x="-100" y="760" width="80" height="80" as="geometry" />
        </mxCell>
        <mxCell id="hQ4Kj63C60F2XzSE5vp--82" value="" style="rounded=0;whiteSpace=wrap;html=1;fillColor=#FF6666;" vertex="1" parent="1">
          <mxGeometry x="-720" y="910" width="20" height="20" as="geometry" />
        </mxCell>
        <mxCell id="hQ4Kj63C60F2XzSE5vp--83" value="" style="rounded=0;whiteSpace=wrap;html=1;fillColor=#FF6666;" vertex="1" parent="1">
          <mxGeometry x="-680" y="900" width="40" height="40" as="geometry" />
        </mxCell>
        <mxCell id="hQ4Kj63C60F2XzSE5vp--86" value="" style="endArrow=none;html=1;rounded=0;" edge="1" parent="1">
          <mxGeometry width="50" height="50" relative="1" as="geometry">
            <mxPoint x="-680" y="920" as="sourcePoint" />
            <mxPoint x="-640" y="920" as="targetPoint" />
          </mxGeometry>
        </mxCell>
        <mxCell id="hQ4Kj63C60F2XzSE5vp--87" value="" style="endArrow=none;html=1;rounded=0;" edge="1" parent="1">
          <mxGeometry width="50" height="50" relative="1" as="geometry">
            <mxPoint x="-660" y="940" as="sourcePoint" />
            <mxPoint x="-660" y="900" as="targetPoint" />
          </mxGeometry>
        </mxCell>
        <mxCell id="hQ4Kj63C60F2XzSE5vp--88" value="" style="whiteSpace=wrap;html=1;aspect=fixed;fillColor=#FF6666;" vertex="1" parent="1">
          <mxGeometry x="-620" y="880" width="80" height="80" as="geometry" />
        </mxCell>
        <mxCell id="hQ4Kj63C60F2XzSE5vp--97" value="" style="whiteSpace=wrap;html=1;aspect=fixed;fillColor=#FF6666;" vertex="1" parent="1">
          <mxGeometry x="-520" y="840" width="160" height="160" as="geometry" />
        </mxCell>
        <mxCell id="hQ4Kj63C60F2XzSE5vp--98" value="" style="rounded=0;whiteSpace=wrap;html=1;" vertex="1" parent="1">
          <mxGeometry x="-560" y="880" width="20" height="20" as="geometry" />
        </mxCell>
        <mxCell id="hQ4Kj63C60F2XzSE5vp--99" value="" style="rounded=0;whiteSpace=wrap;html=1;" vertex="1" parent="1">
          <mxGeometry x="-560" y="920" width="20" height="20" as="geometry" />
        </mxCell>
        <mxCell id="hQ4Kj63C60F2XzSE5vp--100" value="" style="rounded=0;whiteSpace=wrap;html=1;" vertex="1" parent="1">
          <mxGeometry x="-560" y="940" width="20" height="20" as="geometry" />
        </mxCell>
        <mxCell id="hQ4Kj63C60F2XzSE5vp--101" value="" style="rounded=0;whiteSpace=wrap;html=1;" vertex="1" parent="1">
          <mxGeometry x="-620" y="940" width="20" height="20" as="geometry" />
        </mxCell>
        <mxCell id="hQ4Kj63C60F2XzSE5vp--122" value="" style="rounded=0;whiteSpace=wrap;html=1;" vertex="1" parent="1">
          <mxGeometry x="-520" y="840" width="20" height="20" as="geometry" />
        </mxCell>
        <mxCell id="hQ4Kj63C60F2XzSE5vp--123" value="" style="rounded=0;whiteSpace=wrap;html=1;" vertex="1" parent="1">
          <mxGeometry x="-520" y="860" width="20" height="20" as="geometry" />
        </mxCell>
        <mxCell id="hQ4Kj63C60F2XzSE5vp--124" value="" style="whiteSpace=wrap;html=1;aspect=fixed;fillColor=#7EA6E0;" vertex="1" parent="1">
          <mxGeometry x="-400" y="840" width="40" height="40" as="geometry" />
        </mxCell>
        <mxCell id="hQ4Kj63C60F2XzSE5vp--126" value="" style="whiteSpace=wrap;html=1;aspect=fixed;fillColor=#7EA6E0;" vertex="1" parent="1">
          <mxGeometry x="-400" y="960" width="40" height="40" as="geometry" />
        </mxCell>
        <mxCell id="hQ4Kj63C60F2XzSE5vp--127" value="" style="whiteSpace=wrap;html=1;aspect=fixed;fillColor=#7EA6E0;" vertex="1" parent="1">
          <mxGeometry x="-400" y="920" width="40" height="40" as="geometry" />
        </mxCell>
        <mxCell id="hQ4Kj63C60F2XzSE5vp--129" value="" style="whiteSpace=wrap;html=1;aspect=fixed;fillColor=#7EA6E0;" vertex="1" parent="1">
          <mxGeometry x="-520" y="960" width="40" height="40" as="geometry" />
        </mxCell>
        <mxCell id="hQ4Kj63C60F2XzSE5vp--130" value="" style="rounded=0;whiteSpace=wrap;html=1;" vertex="1" parent="1">
          <mxGeometry x="-500" y="840" width="20" height="20" as="geometry" />
        </mxCell>
        <mxCell id="hQ4Kj63C60F2XzSE5vp--131" value="" style="rounded=0;whiteSpace=wrap;html=1;" vertex="1" parent="1">
          <mxGeometry x="-480" y="840" width="20" height="20" as="geometry" />
        </mxCell>
        <mxCell id="hQ4Kj63C60F2XzSE5vp--132" value="" style="rounded=0;whiteSpace=wrap;html=1;" vertex="1" parent="1">
          <mxGeometry x="-460" y="840" width="20" height="20" as="geometry" />
        </mxCell>
        <mxCell id="hQ4Kj63C60F2XzSE5vp--133" value="" style="rounded=0;whiteSpace=wrap;html=1;" vertex="1" parent="1">
          <mxGeometry x="-440" y="840" width="20" height="20" as="geometry" />
        </mxCell>
        <mxCell id="hQ4Kj63C60F2XzSE5vp--134" value="" style="rounded=0;whiteSpace=wrap;html=1;" vertex="1" parent="1">
          <mxGeometry x="-420" y="840" width="20" height="20" as="geometry" />
        </mxCell>
        <mxCell id="hQ4Kj63C60F2XzSE5vp--135" value="" style="rounded=0;whiteSpace=wrap;html=1;" vertex="1" parent="1">
          <mxGeometry x="-440" y="860" width="20" height="20" as="geometry" />
        </mxCell>
        <mxCell id="hQ4Kj63C60F2XzSE5vp--136" value="" style="rounded=0;whiteSpace=wrap;html=1;" vertex="1" parent="1">
          <mxGeometry x="-460" y="860" width="20" height="20" as="geometry" />
        </mxCell>
        <mxCell id="hQ4Kj63C60F2XzSE5vp--137" value="" style="rounded=0;whiteSpace=wrap;html=1;" vertex="1" parent="1">
          <mxGeometry x="-500" y="880" width="20" height="20" as="geometry" />
        </mxCell>
        <mxCell id="hQ4Kj63C60F2XzSE5vp--138" value="" style="rounded=0;whiteSpace=wrap;html=1;" vertex="1" parent="1">
          <mxGeometry x="-520" y="920" width="20" height="20" as="geometry" />
        </mxCell>
        <mxCell id="hQ4Kj63C60F2XzSE5vp--139" value="" style="rounded=0;whiteSpace=wrap;html=1;" vertex="1" parent="1">
          <mxGeometry x="-520" y="940" width="20" height="20" as="geometry" />
        </mxCell>
        <mxCell id="hQ4Kj63C60F2XzSE5vp--140" value="" style="rounded=0;whiteSpace=wrap;html=1;" vertex="1" parent="1">
          <mxGeometry x="-480" y="980" width="20" height="20" as="geometry" />
        </mxCell>
        <mxCell id="hQ4Kj63C60F2XzSE5vp--141" value="" style="rounded=0;whiteSpace=wrap;html=1;" vertex="1" parent="1">
          <mxGeometry x="-460" y="980" width="20" height="20" as="geometry" />
        </mxCell>
        <mxCell id="hQ4Kj63C60F2XzSE5vp--142" value="" style="rounded=0;whiteSpace=wrap;html=1;" vertex="1" parent="1">
          <mxGeometry x="-440" y="980" width="20" height="20" as="geometry" />
        </mxCell>
        <mxCell id="hQ4Kj63C60F2XzSE5vp--143" value="" style="rounded=0;whiteSpace=wrap;html=1;" vertex="1" parent="1">
          <mxGeometry x="-420" y="980" width="20" height="20" as="geometry" />
        </mxCell>
        <mxCell id="hQ4Kj63C60F2XzSE5vp--144" value="" style="rounded=0;whiteSpace=wrap;html=1;" vertex="1" parent="1">
          <mxGeometry x="-420" y="960" width="20" height="20" as="geometry" />
        </mxCell>
        <mxCell id="hQ4Kj63C60F2XzSE5vp--145" value="" style="rounded=0;whiteSpace=wrap;html=1;" vertex="1" parent="1">
          <mxGeometry x="-380" y="900" width="20" height="20" as="geometry" />
        </mxCell>
        <mxCell id="hQ4Kj63C60F2XzSE5vp--146" value="" style="rounded=0;whiteSpace=wrap;html=1;" vertex="1" parent="1">
          <mxGeometry x="-380" y="880" width="20" height="20" as="geometry" />
        </mxCell>
        <mxCell id="hQ4Kj63C60F2XzSE5vp--147" value="" style="rounded=0;whiteSpace=wrap;html=1;fillColor=#00CC00;" vertex="1" parent="1">
          <mxGeometry x="-420" y="880" width="20" height="20" as="geometry" />
        </mxCell>
        <mxCell id="hQ4Kj63C60F2XzSE5vp--149" value="" style="rounded=0;whiteSpace=wrap;html=1;fillColor=#00CC00;" vertex="1" parent="1">
          <mxGeometry x="-420" y="900" width="20" height="20" as="geometry" />
        </mxCell>
        <mxCell id="hQ4Kj63C60F2XzSE5vp--150" value="" style="rounded=0;whiteSpace=wrap;html=1;fillColor=#00CC00;" vertex="1" parent="1">
          <mxGeometry x="-440" y="880" width="20" height="20" as="geometry" />
        </mxCell>
        <mxCell id="hQ4Kj63C60F2XzSE5vp--151" value="" style="rounded=0;whiteSpace=wrap;html=1;fillColor=#00CC00;" vertex="1" parent="1">
          <mxGeometry x="-460" y="880" width="20" height="20" as="geometry" />
        </mxCell>
        <mxCell id="hQ4Kj63C60F2XzSE5vp--152" value="" style="rounded=0;whiteSpace=wrap;html=1;fillColor=#00CC00;" vertex="1" parent="1">
          <mxGeometry x="-460" y="900" width="20" height="20" as="geometry" />
        </mxCell>
        <mxCell id="hQ4Kj63C60F2XzSE5vp--153" value="" style="rounded=0;whiteSpace=wrap;html=1;fillColor=#00CC00;" vertex="1" parent="1">
          <mxGeometry x="-480" y="900" width="20" height="20" as="geometry" />
        </mxCell>
        <mxCell id="hQ4Kj63C60F2XzSE5vp--154" value="" style="rounded=0;whiteSpace=wrap;html=1;fillColor=#00CC00;" vertex="1" parent="1">
          <mxGeometry x="-500" y="900" width="20" height="20" as="geometry" />
        </mxCell>
        <mxCell id="hQ4Kj63C60F2XzSE5vp--155" value="" style="rounded=0;whiteSpace=wrap;html=1;fillColor=#00CC00;" vertex="1" parent="1">
          <mxGeometry x="-480" y="940" width="20" height="20" as="geometry" />
        </mxCell>
        <mxCell id="hQ4Kj63C60F2XzSE5vp--156" value="" style="rounded=0;whiteSpace=wrap;html=1;fillColor=#00CC00;" vertex="1" parent="1">
          <mxGeometry x="-460" y="940" width="20" height="20" as="geometry" />
        </mxCell>
        <mxCell id="hQ4Kj63C60F2XzSE5vp--157" value="" style="rounded=0;whiteSpace=wrap;html=1;fillColor=#00CC00;" vertex="1" parent="1">
          <mxGeometry x="-440" y="940" width="20" height="20" as="geometry" />
        </mxCell>
        <mxCell id="hQ4Kj63C60F2XzSE5vp--158" value="" style="rounded=0;whiteSpace=wrap;html=1;fillColor=#00CC00;" vertex="1" parent="1">
          <mxGeometry x="-420" y="920" width="20" height="20" as="geometry" />
        </mxCell>
        <mxCell id="hQ4Kj63C60F2XzSE5vp--106" value="" style="endArrow=none;html=1;rounded=0;" edge="1" parent="1">
          <mxGeometry width="50" height="50" relative="1" as="geometry">
            <mxPoint x="-420" y="1000" as="sourcePoint" />
            <mxPoint x="-420" y="840" as="targetPoint" />
          </mxGeometry>
        </mxCell>
        <mxCell id="hQ4Kj63C60F2XzSE5vp--107" value="" style="endArrow=none;html=1;rounded=0;" edge="1" parent="1">
          <mxGeometry width="50" height="50" relative="1" as="geometry">
            <mxPoint x="-400" y="1000" as="sourcePoint" />
            <mxPoint x="-400" y="840" as="targetPoint" />
          </mxGeometry>
        </mxCell>
        <mxCell id="hQ4Kj63C60F2XzSE5vp--119" value="" style="endArrow=none;html=1;rounded=0;" edge="1" parent="1">
          <mxGeometry width="50" height="50" relative="1" as="geometry">
            <mxPoint x="-520" y="960" as="sourcePoint" />
            <mxPoint x="-360" y="960" as="targetPoint" />
          </mxGeometry>
        </mxCell>
        <mxCell id="hQ4Kj63C60F2XzSE5vp--161" value="" style="rounded=0;whiteSpace=wrap;html=1;fillColor=#7EA6E0;" vertex="1" parent="1">
          <mxGeometry x="-340" y="800" width="40" height="40" as="geometry" />
        </mxCell>
        <mxCell id="hQ4Kj63C60F2XzSE5vp--164" value="" style="rounded=0;whiteSpace=wrap;html=1;fillColor=#7EA6E0;" vertex="1" parent="1">
          <mxGeometry x="-220" y="840" width="40" height="40" as="geometry" />
        </mxCell>
        <mxCell id="hQ4Kj63C60F2XzSE5vp--166" value="" style="rounded=0;whiteSpace=wrap;html=1;fillColor=#7EA6E0;" vertex="1" parent="1">
          <mxGeometry x="-140" y="760" width="40" height="40" as="geometry" />
        </mxCell>
        <mxCell id="hQ4Kj63C60F2XzSE5vp--169" value="" style="rounded=0;whiteSpace=wrap;html=1;fillColor=#7EA6E0;" vertex="1" parent="1">
          <mxGeometry x="-300" y="840" width="40" height="40" as="geometry" />
        </mxCell>
        <mxCell id="hQ4Kj63C60F2XzSE5vp--172" value="" style="rounded=0;whiteSpace=wrap;html=1;fillColor=#7EA6E0;" vertex="1" parent="1">
          <mxGeometry x="-340" y="960" width="40" height="40" as="geometry" />
        </mxCell>
        <mxCell id="hQ4Kj63C60F2XzSE5vp--173" value="" style="rounded=0;whiteSpace=wrap;html=1;fillColor=#7EA6E0;" vertex="1" parent="1">
          <mxGeometry x="-260" y="960" width="40" height="40" as="geometry" />
        </mxCell>
        <mxCell id="hQ4Kj63C60F2XzSE5vp--176" value="" style="rounded=0;whiteSpace=wrap;html=1;fillColor=#7EA6E0;" vertex="1" parent="1">
          <mxGeometry x="-300" y="880" width="40" height="40" as="geometry" />
        </mxCell>
        <mxCell id="hQ4Kj63C60F2XzSE5vp--180" value="" style="rounded=0;whiteSpace=wrap;html=1;fillColor=#7EA6E0;" vertex="1" parent="1">
          <mxGeometry x="-140" y="840" width="40" height="40" as="geometry" />
        </mxCell>
        <mxCell id="hQ4Kj63C60F2XzSE5vp--183" value="" style="rounded=0;whiteSpace=wrap;html=1;fillColor=#7EA6E0;" vertex="1" parent="1">
          <mxGeometry x="-140" y="1000" width="40" height="40" as="geometry" />
        </mxCell>
        <mxCell id="hQ4Kj63C60F2XzSE5vp--187" value="" style="rounded=0;whiteSpace=wrap;html=1;fillColor=#7EA6E0;" vertex="1" parent="1">
          <mxGeometry x="-260" y="1040" width="40" height="40" as="geometry" />
        </mxCell>
        <mxCell id="hQ4Kj63C60F2XzSE5vp--189" value="" style="rounded=0;whiteSpace=wrap;html=1;fillColor=#7EA6E0;" vertex="1" parent="1">
          <mxGeometry x="-60" y="880" width="40" height="40" as="geometry" />
        </mxCell>
        <mxCell id="hQ4Kj63C60F2XzSE5vp--190" value="" style="rounded=0;whiteSpace=wrap;html=1;fillColor=#7EA6E0;" vertex="1" parent="1">
          <mxGeometry x="-100" y="1000" width="80" height="80" as="geometry" />
        </mxCell>
        <mxCell id="hQ4Kj63C60F2XzSE5vp--191" value="" style="rounded=0;whiteSpace=wrap;html=1;fillColor=#7EA6E0;" vertex="1" parent="1">
          <mxGeometry x="-340" y="1000" width="80" height="80" as="geometry" />
        </mxCell>
        <mxCell id="hQ4Kj63C60F2XzSE5vp--192" value="" style="rounded=0;whiteSpace=wrap;html=1;fillColor=#00CC00;" vertex="1" parent="1">
          <mxGeometry x="-300" y="820" width="20" height="20" as="geometry" />
        </mxCell>
        <mxCell id="hQ4Kj63C60F2XzSE5vp--193" value="" style="rounded=0;whiteSpace=wrap;html=1;fillColor=#00CC00;" vertex="1" parent="1">
          <mxGeometry x="-240" y="800" width="20" height="40" as="geometry" />
        </mxCell>
        <mxCell id="hQ4Kj63C60F2XzSE5vp--194" value="" style="rounded=0;whiteSpace=wrap;html=1;fillColor=#7EA6E0;" vertex="1" parent="1">
          <mxGeometry x="-340" y="760" width="40" height="40" as="geometry" />
        </mxCell>
        <mxCell id="hQ4Kj63C60F2XzSE5vp--195" value="" style="rounded=0;whiteSpace=wrap;html=1;fillColor=#00CC00;" vertex="1" parent="1">
          <mxGeometry x="-240" y="860" width="20" height="20" as="geometry" />
        </mxCell>
        <mxCell id="hQ4Kj63C60F2XzSE5vp--196" value="" style="rounded=0;whiteSpace=wrap;html=1;fillColor=#00CC00;" vertex="1" parent="1">
          <mxGeometry x="-320" y="860" width="20" height="60" as="geometry" />
        </mxCell>
        <mxCell id="hQ4Kj63C60F2XzSE5vp--197" value="" style="rounded=0;whiteSpace=wrap;html=1;fillColor=#FFFF00;" vertex="1" parent="1">
          <mxGeometry x="-180" y="900" width="20" height="20" as="geometry" />
        </mxCell>
        <mxCell id="hQ4Kj63C60F2XzSE5vp--198" value="" style="rounded=0;whiteSpace=wrap;html=1;fillColor=#00CC00;" vertex="1" parent="1">
          <mxGeometry x="-140" y="820" width="40" height="20" as="geometry" />
        </mxCell>
        <mxCell id="hQ4Kj63C60F2XzSE5vp--199" value="" style="rounded=0;whiteSpace=wrap;html=1;fillColor=#00CC00;" vertex="1" parent="1">
          <mxGeometry x="-100" y="860" width="20" height="60" as="geometry" />
        </mxCell>
        <mxCell id="hQ4Kj63C60F2XzSE5vp--200" value="" style="rounded=0;whiteSpace=wrap;html=1;fillColor=#00CC00;" vertex="1" parent="1">
          <mxGeometry x="-160" y="880" width="20" height="80" as="geometry" />
        </mxCell>
        <mxCell id="hQ4Kj63C60F2XzSE5vp--201" value="" style="rounded=0;whiteSpace=wrap;html=1;fillColor=#00CC00;" vertex="1" parent="1">
          <mxGeometry x="-180" y="880" width="20" height="20" as="geometry" />
        </mxCell>
        <mxCell id="hQ4Kj63C60F2XzSE5vp--202" value="" style="rounded=0;whiteSpace=wrap;html=1;fillColor=#00CC00;" vertex="1" parent="1">
          <mxGeometry x="-240" y="1000" width="80" height="20" as="geometry" />
        </mxCell>
        <mxCell id="hQ4Kj63C60F2XzSE5vp--203" value="" style="rounded=0;whiteSpace=wrap;html=1;fillColor=#00CC00;" vertex="1" parent="1">
          <mxGeometry x="-300" y="940" width="20" height="40" as="geometry" />
        </mxCell>
        <mxCell id="hQ4Kj63C60F2XzSE5vp--204" value="" style="rounded=0;whiteSpace=wrap;html=1;fillColor=#00CC00;" vertex="1" parent="1">
          <mxGeometry x="-280" y="940" width="20" height="60" as="geometry" />
        </mxCell>
        <mxCell id="hQ4Kj63C60F2XzSE5vp--205" value="" style="rounded=0;whiteSpace=wrap;html=1;fillColor=#00CC00;" vertex="1" parent="1">
          <mxGeometry x="-260" y="940" width="100" height="20" as="geometry" />
        </mxCell>
        <mxCell id="hQ4Kj63C60F2XzSE5vp--206" value="" style="rounded=0;whiteSpace=wrap;html=1;fillColor=#00CC00;" vertex="1" parent="1">
          <mxGeometry x="-140" y="960" width="20" height="40" as="geometry" />
        </mxCell>
        <mxCell id="hQ4Kj63C60F2XzSE5vp--207" value="" style="rounded=0;whiteSpace=wrap;html=1;fillColor=#00CC00;" vertex="1" parent="1">
          <mxGeometry x="-120" y="960" width="20" height="20" as="geometry" />
        </mxCell>
        <mxCell id="hQ4Kj63C60F2XzSE5vp--262" value="" style="rounded=0;whiteSpace=wrap;html=1;fillColor=#7EA6E0;" vertex="1" parent="1">
          <mxGeometry x="-220" y="800" width="40" height="40" as="geometry" />
        </mxCell>
        <mxCell id="hQ4Kj63C60F2XzSE5vp--263" value="" style="rounded=0;whiteSpace=wrap;html=1;fillColor=#7EA6E0;" vertex="1" parent="1">
          <mxGeometry x="-220" y="760" width="40" height="40" as="geometry" />
        </mxCell>
        <mxCell id="hQ4Kj63C60F2XzSE5vp--264" value="" style="rounded=0;whiteSpace=wrap;html=1;fillColor=#7EA6E0;" vertex="1" parent="1">
          <mxGeometry x="-180" y="760" width="40" height="40" as="geometry" />
        </mxCell>
        <mxCell id="hQ4Kj63C60F2XzSE5vp--265" value="" style="rounded=0;whiteSpace=wrap;html=1;fillColor=#7EA6E0;" vertex="1" parent="1">
          <mxGeometry x="-180" y="800" width="40" height="40" as="geometry" />
        </mxCell>
        <mxCell id="hQ4Kj63C60F2XzSE5vp--266" value="" style="rounded=0;whiteSpace=wrap;html=1;fillColor=#7EA6E0;" vertex="1" parent="1">
          <mxGeometry x="-180" y="840" width="40" height="40" as="geometry" />
        </mxCell>
        <mxCell id="hQ4Kj63C60F2XzSE5vp--267" value="" style="rounded=0;whiteSpace=wrap;html=1;fillColor=#7EA6E0;" vertex="1" parent="1">
          <mxGeometry x="-300" y="760" width="40" height="40" as="geometry" />
        </mxCell>
        <mxCell id="hQ4Kj63C60F2XzSE5vp--268" value="" style="rounded=0;whiteSpace=wrap;html=1;fillColor=#7EA6E0;" vertex="1" parent="1">
          <mxGeometry x="-260" y="760" width="40" height="40" as="geometry" />
        </mxCell>
        <mxCell id="hQ4Kj63C60F2XzSE5vp--269" value="" style="rounded=0;whiteSpace=wrap;html=1;fillColor=#7EA6E0;" vertex="1" parent="1">
          <mxGeometry x="-260" y="880" width="40" height="40" as="geometry" />
        </mxCell>
        <mxCell id="hQ4Kj63C60F2XzSE5vp--270" value="" style="rounded=0;whiteSpace=wrap;html=1;fillColor=#7EA6E0;" vertex="1" parent="1">
          <mxGeometry x="-220" y="880" width="40" height="40" as="geometry" />
        </mxCell>
        <mxCell id="hQ4Kj63C60F2XzSE5vp--271" value="" style="rounded=0;whiteSpace=wrap;html=1;fillColor=#7EA6E0;" vertex="1" parent="1">
          <mxGeometry x="-140" y="880" width="40" height="40" as="geometry" />
        </mxCell>
        <mxCell id="hQ4Kj63C60F2XzSE5vp--272" value="" style="rounded=0;whiteSpace=wrap;html=1;fillColor=#7EA6E0;" vertex="1" parent="1">
          <mxGeometry x="-140" y="920" width="40" height="40" as="geometry" />
        </mxCell>
        <mxCell id="hQ4Kj63C60F2XzSE5vp--273" value="" style="rounded=0;whiteSpace=wrap;html=1;fillColor=#7EA6E0;" vertex="1" parent="1">
          <mxGeometry x="-60" y="840" width="40" height="40" as="geometry" />
        </mxCell>
        <mxCell id="hQ4Kj63C60F2XzSE5vp--274" value="" style="rounded=0;whiteSpace=wrap;html=1;fillColor=#7EA6E0;" vertex="1" parent="1">
          <mxGeometry x="-100" y="920" width="80" height="80" as="geometry" />
        </mxCell>
        <mxCell id="hQ4Kj63C60F2XzSE5vp--275" value="" style="rounded=0;whiteSpace=wrap;html=1;fillColor=#7EA6E0;" vertex="1" parent="1">
          <mxGeometry x="-220" y="1040" width="40" height="40" as="geometry" />
        </mxCell>
        <mxCell id="hQ4Kj63C60F2XzSE5vp--276" value="" style="rounded=0;whiteSpace=wrap;html=1;fillColor=#7EA6E0;" vertex="1" parent="1">
          <mxGeometry x="-180" y="1040" width="40" height="40" as="geometry" />
        </mxCell>
        <mxCell id="hQ4Kj63C60F2XzSE5vp--277" value="" style="rounded=0;whiteSpace=wrap;html=1;fillColor=#7EA6E0;" vertex="1" parent="1">
          <mxGeometry x="-140" y="1040" width="40" height="40" as="geometry" />
        </mxCell>
        <mxCell id="hQ4Kj63C60F2XzSE5vp--278" value="" style="rounded=0;whiteSpace=wrap;html=1;fillColor=#7EA6E0;" vertex="1" parent="1">
          <mxGeometry x="-220" y="960" width="40" height="40" as="geometry" />
        </mxCell>
        <mxCell id="hQ4Kj63C60F2XzSE5vp--279" value="" style="rounded=0;whiteSpace=wrap;html=1;fillColor=#7EA6E0;" vertex="1" parent="1">
          <mxGeometry x="-180" y="960" width="40" height="40" as="geometry" />
        </mxCell>
        <mxCell id="hQ4Kj63C60F2XzSE5vp--280" value="" style="rounded=0;whiteSpace=wrap;html=1;fillColor=#7EA6E0;" vertex="1" parent="1">
          <mxGeometry x="-340" y="920" width="40" height="40" as="geometry" />
        </mxCell>
        <mxCell id="hQ4Kj63C60F2XzSE5vp--281" value="" style="rounded=0;whiteSpace=wrap;html=1;fillColor=#00CC00;" vertex="1" parent="1">
          <mxGeometry x="-320" y="880" width="20" height="20" as="geometry" />
        </mxCell>
        <mxCell id="hQ4Kj63C60F2XzSE5vp--282" value="" style="rounded=0;whiteSpace=wrap;html=1;fillColor=#00CC00;" vertex="1" parent="1">
          <mxGeometry x="-240" y="940" width="20" height="20" as="geometry" />
        </mxCell>
        <mxCell id="hQ4Kj63C60F2XzSE5vp--283" value="" style="rounded=0;whiteSpace=wrap;html=1;fillColor=#00CC00;" vertex="1" parent="1">
          <mxGeometry x="-200" y="940" width="20" height="20" as="geometry" />
        </mxCell>
        <mxCell id="hQ4Kj63C60F2XzSE5vp--284" value="" style="rounded=0;whiteSpace=wrap;html=1;fillColor=#00CC00;" vertex="1" parent="1">
          <mxGeometry x="-160" y="920" width="20" height="20" as="geometry" />
        </mxCell>
        <mxCell id="hQ4Kj63C60F2XzSE5vp--285" value="" style="rounded=0;whiteSpace=wrap;html=1;fillColor=#00CC00;" vertex="1" parent="1">
          <mxGeometry x="-160" y="880" width="20" height="20" as="geometry" />
        </mxCell>
        <mxCell id="hQ4Kj63C60F2XzSE5vp--286" value="" style="rounded=0;whiteSpace=wrap;html=1;fillColor=#00CC00;" vertex="1" parent="1">
          <mxGeometry x="-240" y="820" width="20" height="20" as="geometry" />
        </mxCell>
        <mxCell id="hQ4Kj63C60F2XzSE5vp--287" value="" style="rounded=0;whiteSpace=wrap;html=1;fillColor=#00CC00;" vertex="1" parent="1">
          <mxGeometry x="-140" y="820" width="20" height="20" as="geometry" />
        </mxCell>
        <mxCell id="hQ4Kj63C60F2XzSE5vp--288" value="" style="rounded=0;whiteSpace=wrap;html=1;fillColor=#00CC00;" vertex="1" parent="1">
          <mxGeometry x="-100" y="880" width="20" height="20" as="geometry" />
        </mxCell>
        <mxCell id="hQ4Kj63C60F2XzSE5vp--289" value="" style="rounded=0;whiteSpace=wrap;html=1;fillColor=#00CC00;" vertex="1" parent="1">
          <mxGeometry x="-140" y="960" width="20" height="20" as="geometry" />
        </mxCell>
        <mxCell id="hQ4Kj63C60F2XzSE5vp--290" value="" style="rounded=0;whiteSpace=wrap;html=1;fillColor=#00CC00;" vertex="1" parent="1">
          <mxGeometry x="-220" y="1000" width="20" height="20" as="geometry" />
        </mxCell>
        <mxCell id="hQ4Kj63C60F2XzSE5vp--291" value="" style="rounded=0;whiteSpace=wrap;html=1;fillColor=#00CC00;" vertex="1" parent="1">
          <mxGeometry x="-180" y="1000" width="20" height="20" as="geometry" />
        </mxCell>
        <mxCell id="hQ4Kj63C60F2XzSE5vp--294" value="" style="rounded=0;whiteSpace=wrap;html=1;fillColor=#00CC00;" vertex="1" parent="1">
          <mxGeometry x="-280" y="960" width="20" height="20" as="geometry" />
        </mxCell>
        <mxCell id="hQ4Kj63C60F2XzSE5vp--295" value="" style="rounded=0;whiteSpace=wrap;html=1;fillColor=#00CC00;" vertex="1" parent="1">
          <mxGeometry x="-300" y="940" width="20" height="20" as="geometry" />
        </mxCell>
        <mxCell id="hQ4Kj63C60F2XzSE5vp--296" value="" style="rounded=0;whiteSpace=wrap;html=1;" vertex="1" parent="1">
          <mxGeometry x="-340" y="840" width="20" height="20" as="geometry" />
        </mxCell>
        <mxCell id="hQ4Kj63C60F2XzSE5vp--297" value="" style="rounded=0;whiteSpace=wrap;html=1;" vertex="1" parent="1">
          <mxGeometry x="-340" y="880" width="20" height="20" as="geometry" />
        </mxCell>
        <mxCell id="hQ4Kj63C60F2XzSE5vp--298" value="" style="rounded=0;whiteSpace=wrap;html=1;" vertex="1" parent="1">
          <mxGeometry x="-280" y="800" width="20" height="20" as="geometry" />
        </mxCell>
        <mxCell id="hQ4Kj63C60F2XzSE5vp--299" value="" style="rounded=0;whiteSpace=wrap;html=1;" vertex="1" parent="1">
          <mxGeometry x="-260" y="820" width="20" height="20" as="geometry" />
        </mxCell>
        <mxCell id="hQ4Kj63C60F2XzSE5vp--300" value="" style="rounded=0;whiteSpace=wrap;html=1;" vertex="1" parent="1">
          <mxGeometry x="-260" y="840" width="20" height="20" as="geometry" />
        </mxCell>
        <mxCell id="hQ4Kj63C60F2XzSE5vp--301" value="" style="rounded=0;whiteSpace=wrap;html=1;" vertex="1" parent="1">
          <mxGeometry x="-120" y="800" width="20" height="20" as="geometry" />
        </mxCell>
        <mxCell id="hQ4Kj63C60F2XzSE5vp--302" value="" style="rounded=0;whiteSpace=wrap;html=1;" vertex="1" parent="1">
          <mxGeometry x="-80" y="840" width="20" height="20" as="geometry" />
        </mxCell>
        <mxCell id="hQ4Kj63C60F2XzSE5vp--303" value="" style="rounded=0;whiteSpace=wrap;html=1;" vertex="1" parent="1">
          <mxGeometry x="-80" y="880" width="20" height="20" as="geometry" />
        </mxCell>
        <mxCell id="hQ4Kj63C60F2XzSE5vp--304" value="" style="rounded=0;whiteSpace=wrap;html=1;" vertex="1" parent="1">
          <mxGeometry x="-200" y="920" width="20" height="20" as="geometry" />
        </mxCell>
        <mxCell id="hQ4Kj63C60F2XzSE5vp--305" value="" style="rounded=0;whiteSpace=wrap;html=1;" vertex="1" parent="1">
          <mxGeometry x="-240" y="920" width="20" height="20" as="geometry" />
        </mxCell>
        <mxCell id="hQ4Kj63C60F2XzSE5vp--306" value="" style="rounded=0;whiteSpace=wrap;html=1;" vertex="1" parent="1">
          <mxGeometry x="-280" y="920" width="20" height="20" as="geometry" />
        </mxCell>
        <mxCell id="hQ4Kj63C60F2XzSE5vp--307" value="" style="rounded=0;whiteSpace=wrap;html=1;" vertex="1" parent="1">
          <mxGeometry x="-260" y="1020" width="20" height="20" as="geometry" />
        </mxCell>
        <mxCell id="hQ4Kj63C60F2XzSE5vp--308" value="" style="rounded=0;whiteSpace=wrap;html=1;" vertex="1" parent="1">
          <mxGeometry x="-220" y="1020" width="20" height="20" as="geometry" />
        </mxCell>
        <mxCell id="hQ4Kj63C60F2XzSE5vp--309" value="" style="rounded=0;whiteSpace=wrap;html=1;" vertex="1" parent="1">
          <mxGeometry x="-180" y="1020" width="20" height="20" as="geometry" />
        </mxCell>
        <mxCell id="hQ4Kj63C60F2XzSE5vp--310" value="" style="rounded=0;whiteSpace=wrap;html=1;" vertex="1" parent="1">
          <mxGeometry x="-160" y="1000" width="20" height="20" as="geometry" />
        </mxCell>
      </root>
    </mxGraphModel>
  </diagram>
</mxfile>
